<svg xmlns="http://www.w3.org/2000/svg" viewBox="0 0 64 64"><path fill="none" d="M0 0h64v64H0z"/><path fill="none" d="M0 0h63.93v63.93H0z"/><path fill="#1d80b2" d="m13 56-5.01-5H13v5zM51 56l5.01-5H51v5z"/><path fill="#b2b2b2" d="M51 13h-7.99V5.01L51 13z"/><path fill="#f1f1f1" d="M43 5H14.59A1.59 1.59 0 0 0 13 6.59v51a1.6 1.6 0 0 0 1.59 1.6h34.82A1.6 1.6 0 0 0 51 57.54V13h-8Z"/><path fill="#2598de" d="M9 33h46a1 1 0 0 1 1 1v17H8V34a1 1 0 0 1 1-1Z"/><path fill="#fff" d="M26.35 44a3.69 3.69 0 0 1-1.48 1.45 4.74 4.74 0 0 1-2.28.52h-3.08v-8.15h3.08a4.8 4.8 0 0 1 2.28.51 3.6 3.6 0 0 1 1.48 1.44 4.3 4.3 0 0 1 .51 2.13 4.36 4.36 0 0 1-.51 2.1zm-2.13-.41a2.64 2.64 0 0 0 0-3.45 2.5 2.5 0 0 0-1.8-.61h-.94v4.67h.94a2.5 2.5 0 0 0 1.8-.58zM34 38.24a3.85 3.85 0 0 1 1.48 1.49 4.27 4.27 0 0 1 .52 2.15 4.35 4.35 0 0 1-.55 2.17A4 4 0 0 1 34 45.54a4.3 4.3 0 0 1-4.17 0 3.88 3.88 0 0 1-1.49-1.49 4.24 4.24 0 0 1-.55-2.17 4.17 4.17 0 0 1 .55-2.15 3.81 3.81 0 0 1 1.49-1.49 4.33 4.33 0 0 1 4.19 0zm-3.65 1.93a2.85 2.85 0 0 0 0 3.42 2 2 0 0 0 1.55.64 1.94 1.94 0 0 0 1.53-.64 2.41 2.41 0 0 0 .57-1.71 2.49 2.49 0 0 0-.57-1.71 2.21 2.21 0 0 0-3.09 0zm13.07-1.6a3.68 3.68 0 0 1 1.33 2.22h-2.09a1.91 1.91 0 0 0-1.85-1.22 1.71 1.71 0 0 0-1.4.64 2.53 2.53 0 0 0-.54 1.7 2.5 2.5 0 0 0 .54 1.69 1.73 1.73 0 0 0 1.4.63A1.93 1.93 0 0 0 42.66 43h2.09a3.75 3.75 0 0 1-1.33 2.21 4 4 0 0 1-2.58.83 4.08 4.08 0 0 1-2.09-.53 3.61 3.61 0 0 1-1.4-1.47 4.71 4.71 0 0 1-.49-2.16 4.78 4.78 0 0 1 .49-2.17 3.61 3.61 0 0 1 1.4-1.47 4.08 4.08 0 0 1 2.09-.53 4 4 0 0 1 2.58.86z"/><path fill="none" stroke="#2598de" stroke-linecap="round" stroke-linejoin="round" d="M17.99 13h19.1M34.88 19.61h11.56M17.99 19.61h13.26M42.71 26.22h3.73M17.99 26.22h19.95"/></svg>