<svg xmlns="http://www.w3.org/2000/svg" viewBox="0 0 512 512"><path fill="#231F20" d="M297.941 48H96v416h320V166.059z"/><path fill="#FFF" d="M392 440H120V72h168l104 104z"/><path fill="#6D6E71" d="M288 176V72l104 104z"/><path fill="#E6E7E8" d="m288 176 104 104V176z"/><path fill="#231F20" d="M48 176h72v240H48z"/><linearGradient id="a" x1="260.916" x2="123.347" y1="296" y2="296" gradientUnits="userSpaceOnUse"><stop offset="0" stop-color="#fff"/><stop offset="1" stop-color="#e6e7e8"/></linearGradient><path fill="url(#a)" d="M120 176h144v240H120z"/><path fill="#F25A25" d="M72 200h192v192H72z"/><path fill="#E6E7E8" d="M264 376h56v16h-56zM264 336h56v16h-56zM264 256v56c30.928 0 56-25.072 56-56h-56z"/><path fill="#F7B3A6" d="M280 202.332V240h37.668c-5.376-18.058-19.61-32.292-37.668-37.668z"/><path fill="#FFF" d="M180 240h-52v112h24v-40h28c19.882 0 36-16.118 36-36s-16.118-36-36-36zm0 48h-28v-24h28c6.627 0 12 5.373 12 12s-5.373 12-12 12z"/></svg>