<svg width="26" height="24" viewBox="0 0 26 24" fill="none" xmlns="http://www.w3.org/2000/svg">
<path opacity="0.3" d="M25.8676 0.0961979C25.7519 -0.00504765 25.5872 -0.0285372 25.4476 0.0360398L0.22489 11.7244C0.0890993 11.7873 0.0016555 11.9225 2.32126e-05 12.0718C-0.00160907 12.2211 0.0829588 12.3581 0.217428 12.4239L7.35541 15.9177C7.4863 15.9818 7.64238 15.9673 7.75928 15.8802L14.6994 10.7067L9.25112 16.2962C9.17339 16.376 9.13375 16.4852 9.1423 16.596L9.68476 23.6421C9.69681 23.7982 9.80174 23.9317 9.9509 23.9806C9.99077 23.9936 10.0317 24 10.0722 24C10.1833 24 10.2913 23.9525 10.3665 23.8657L14.1551 19.487L18.8386 21.7189C18.9403 21.7673 19.058 21.7693 19.1613 21.7245C19.2646 21.6796 19.3432 21.5924 19.377 21.4852L25.9821 0.503739C26.0283 0.357219 25.9833 0.197444 25.8676 0.0961979Z" fill="white"/>
</svg>
