<svg width="24" height="20" viewBox="0 0 24 20" fill="none" xmlns="http://www.w3.org/2000/svg">
<path d="M23.9361 9.61L20.9361 0.721094C20.79 0.28776 20.4171 0 20.0001 0H17C16.4471 0 16.0001 0.49776 16.0001 1.11109C16.0001 1.72443 16.4471 2.22219 17 2.22219H19.3061L21.5561 8.88885H17C16.4471 8.88885 16.0001 9.38661 16.0001 9.99995V12.2222H8.00003V9.99995C8.00003 9.38661 7.55303 8.88885 7.00004 8.88885H2.44299L4.69299 2.22219H17C17.553 2.22219 17.4154 1.72443 17.4154 1.11109C17.4154 0.49776 17.553 0 17 0H3.99999C3.58299 0 3.21001 0.28776 3.06301 0.721094L0.0630001 9.61C0.0249844 9.72443 0.00998439 9.84333 0.00698439 9.96224C0.00632814 9.97113 0.00400001 12.9467 0 18.8889C0 19.5022 0.447001 20 0.999986 20H23C23.553 20 24 19.5022 24 18.8889V10C23.9891 9.84333 23.9751 9.72448 23.9361 9.61Z" fill="white"/>
</svg>
