<svg xmlns="http://www.w3.org/2000/svg" width="655.359" height="655.359" fill-rule="evenodd" clip-rule="evenodd" image-rendering="optimizeQuality" shape-rendering="geometricPrecision" text-rendering="geometricPrecision" viewBox="0 0 6.827 6.827"><path d="M3.13428 6.21081c-0.0140157,0 -0.028185,-0.00414567 -0.0406181,-0.0129213 -0.0315787,-0.022437 -0.0391378,-0.0662008 -0.0167047,-0.0979016l0.558146 -0.789185c0.0223307,-0.0317008 0.0662008,-0.0392559 0.0979016,-0.0168228 0.0315787,0.0224291 0.0391378,0.0662047 0.0167008,0.0979016l-0.558146 0.789181c-0.0136339,0.019378 -0.0353583,0.029752 -0.0572795,0.029748z"/><path d="M3.69255 6.21081c-0.0220866,0 -0.0437913,-0.0103622 -0.0574449,-0.0297441l-0.558126 -0.789193c-0.022437,-0.0316969 -0.0148937,-0.0754606 0.016685,-0.0978937 0.0317047,-0.022437 0.0755866,-0.014874 0.0978976,0.0168228l0.558157 0.789185c0.022437,0.0316969 0.0148622,0.0754685 -0.0167126,0.0979016 -0.012311,0.00876772 -0.0264567,0.0129252 -0.0404567,0.0129213z"/><path d="M3.22302 5.4215l-.177512 0c-.0387598 0-.0702362-.0314488-.0702362-.0702205.000011811-.0387835.0314567-.0702244.0702244-.0702244l.177524-.00000787402c.0388976 0 .0702205.0314606.0702205.0702323.00000393701.0387677-.0313386.0702283-.0702205.0702205zM3.78118 5.4215l-.177508 0c-.0387913 0-.070248-.0314488-.070248-.0702205.000023622-.0387835.0314567-.0702244.0702283-.0702244l.177528-.00000787402c.0387638 0 .0702087.0314606.0702087.0702323.000015748.0387677-.0314528.0702283-.0702087.0702205zM3.22302 6.21081l-.177512 0c-.0387598 0-.0702362-.0314528-.0702362-.0702244.000011811-.0387756.0314567-.0702244.0702244-.0702244l.177524-.00000393701c.0388976 0 .0702205.0314606.0702205.0702283.00000393701.0387598-.0313386.0702283-.0702205.0702244zM3.78118 6.21081l-.177508 0c-.0387913 0-.070248-.0314528-.070248-.0702244.000023622-.0387756.0314567-.0702244.0702283-.0702244l.177528-.00000393701c.0387638 0 .0702087.0314606.0702087.0702283.000015748.0387598-.0314528.0702283-.0702087.0702244zM2.00713 5.56305c-.0387874 0-.0702441-.0313307-.0702441-.0702205l.000019685-.141677c0-.0387638.031437-.0702205.0702047-.0702205l.663874-.00000393701c.0387559 0 .0702047.0314606.0702047.0702323l.000019685.141661c0 .0388976-.0314803.0702323-.070248.0702323-.038878-.00000393701-.0702244-.0313346-.0702244-.0702244l.000019685-.0714528-.523398 0 0 .0714449c0 .0388976-.0314764.0702323-.0702283.0702283z"/><path d="M2.33898 6.21093c-0.0387598,0 -0.0702244,-0.0314528 -0.0702244,-0.0702244l0 -0.789555c0,-0.0387638 0.0314567,-0.0702205 0.0702244,-0.0702205 0.0387913,-3.93701e-006 0.0702283,0.0314567 0.0702283,0.0702283l0 0.789547c0,0.0387638 -0.0314528,0.0702244 -0.0702283,0.0702244z"/><path d="M2.43568 6.21093l-.19337 0c-.0387598 0-.0702362-.0314528-.0702362-.0702244.000011811-.0387756.0314606-.0702244.0702244-.0702244l.193382 0c.0388976 0 .0702126.0314567.0702126.0702244.000011811.0387638-.0313386.0702244-.0702126.0702244zM4.15584 5.56305c-.0388976 0-.070248-.0313307-.070248-.0702205l.000023622-.141677c0-.0387638.0313071-.0702205.0702008-.0702205l.663736-.00000393701c.0388976 0 .0702165.0314606.0702165.0702323l.00000787402.141661c0 .0388976-.0313425.0702323-.0702362.0702323-.038748-.00000393701-.0702244-.0313346-.0702244-.0702244l.00000787402-.0714528-.523256 0 0 .0714449c0 .0388976-.0314803.0702323-.0702283.0702283z"/><path d="M4.48769 6.21093c-0.0387598,0 -0.0702323,-0.0314528 -0.0702323,-0.0702244l3.93701e-006 -0.789555c0,-0.0387638 0.0314567,-0.0702205 0.0702244,-0.0702205 0.0387913,-3.93701e-006 0.0702244,0.0314567 0.0702244,0.0702283l3.93701e-006 0.789547c0,0.0387638 -0.0314567,0.0702244 -0.0702244,0.0702244z"/><path d="M4.58438 6.21093l-0.193366 0c-0.0387598,0 -0.0702402,-0.0314528 -0.0702402,-0.0702244 1.5748e-005,-0.0387756 0.0314567,-0.0702244 0.0702283,-0.0702244l0.193378 0c0.0387638,0 0.0702087,0.0314567 0.0702087,0.0702244 1.5748e-005,0.0387638 -0.0314528,0.0702244 -0.0702087,0.0702244z"/><path d="M5.26066 6.48l-3.69463 0c-0.247874,0 -0.449417,-0.20152 -0.449417,-0.449386l0 -5.2346c0,-0.247776 0.201535,-0.449346 0.449398,-0.449346l2.88327 0c0.0387913,0 0.0702283,0.0314409 0.0702283,0.0702362 0,0.0387795 -0.0314567,0.0702126 -0.0702283,0.0702126l-2.88325 0c-0.170323,0 -0.308965,0.138575 -0.308965,0.308909l0 5.23459c0,0.170323 0.138622,0.308945 0.308945,0.308945l3.69465 -7.87402e-006c0.170465,0 0.308933,-0.138614 0.308933,-0.308937l3.93701e-006 -4.42318c0,-0.0387717 0.0314567,-0.0702087 0.0702205,-0.0702087 0.0387953,-1.5748e-005 0.0702283,0.0314409 0.0702283,0.0702244l3.93701e-006 4.42317c0,0.247858 -0.201535,0.449398 -0.44939,0.449386z"/><path d="M4.51951.586421l0 .735996c0 .118433.096311.214803.214819.214803l.735913-.000015748-.950732-.950783zm1.12031 1.09124l-.905492 0c-.195921 0-.355272-.159346-.355272-.355236l0-.905531c0-.0284055.0170669-.0540079.0434055-.0648701.0262165-.0108543.0564409-.00486614.076437.0152244l1.19055 1.19054c.0201378.0200787.0260866.0502953.0152362.0765315-.0108465.0262244-.0364528.0433543-.0648622.0433425zM5.63982 5.15232l-4.45298 0c-.0387638 0-.0702283-.0314252-.0702283-.0702165 0-.0387835.0314567-.0702126.0702283-.0702126l4.45298-.00000787402c.0387913 0 .0702244.031437.0702244.0702205.00000393701.0387913-.0314528.0702244-.0702244.0702165zM3.8514 1.21615l-2.06665 0c-.0387638 0-.0702362-.0314291-.0702362-.0702165.00000787402-.0387874.0314528-.0702244.0702244-.0702244l2.06667-.000011811c.0389016 0 .0702087.0314567.0702087.0702362.000019685.0387795-.0313307.0702244-.0702087.0702165zM3.8514 1.67766l-2.06665 0c-.0387638 0-.0702362-.0314291-.0702362-.0702283.00000787402-.0387835.0314528-.0702087.0702244-.0702087l2.06667-.000015748c.0389016 0 .0702087.0314449.0702087.0702244.000019685.0387913-.0313307.0702283-.0702087.0702283zM4.48354 2.3726l-2.14039 0c-.0387913 0-.070248-.031437-.070248-.0702165.000023622-.0387874.0314528-.0702244.0702244-.0702244l2.14042-.000011811c.0387913 0 .0702165.0314488.0702165.0702362.00000787402.0387795-.0314528.0702244-.0702165.0702165zM4.48354 3.06753l-2.14039 0c-.0387913 0-.070248-.031437-.070248-.0702205.000023622-.0387953.0314528-.0702244.0702244-.0702244l2.14042-.00000393701c.0387913 0 .0702165.0314449.0702165.0702283.00000787402.0387677-.0314528.0702244-.0702165.0702205zM4.48354 3.76246l-2.14039 0c-.0387913 0-.070248-.0314449-.070248-.0702244.000023622-.0387913.0314528-.0702283.0702244-.0702283l2.14042 0c.0387913 0 .0702165.0314449.0702165.0702283.00000787402.0387717-.0314528.0702244-.0702165.0702244zM4.48354 4.45738l-2.14039 0c-.0387913 0-.070248-.0314173-.070248-.0702126.000023622-.0387835.0314528-.0702126.0702244-.0702126l2.14042-.000011811c.0387913 0 .0702165.0314409.0702165.0702244.00000787402.0387913-.0314528.0702283-.0702165.0702126z"/><rect width="6.827" height="6.827" fill="none"/></svg>