<svg xmlns="http://www.w3.org/2000/svg" width="512" height="512" enable-background="new 0 0 512 512" viewBox="0 0 512 512"><path d="M401.348,128.869l-92.305-92.305l0,0H92.652v438.87h326.696V146.869L401.348,128.869z M110.652,457.435V54.565h198.392   v92.304h92.305v310.565L110.652,457.435L110.652,457.435z"/><path d="M171.99 307.721c0-6.158 4.558-10.718 9.484-10.718 5.173 0 9.361 4.064 9.361 10.718 0 6.526-3.818 10.715-9.484 10.715C176.301 318.436 171.99 314.248 171.99 307.721zM196.127 307.968l26.234-59.121v-.37h-23.771v-14.041h42.001v11.947l-25.127 56.656v.371h25.003v14.041h-44.34L196.127 307.968 196.127 307.968zM265.715 234.435v83.016h-16.136v-83.016H265.715zM280.121 235.667c4.558-.984 10.716-1.601 16.874-1.601 9.606 0 17.12 1.354 22.539 6.405 4.928 4.311 7.146 11.208 7.146 18.229 0 8.991-2.71 15.273-7.021 19.953-5.173 5.42-13.548 7.883-20.199 7.883-1.107 0-2.216 0-3.201 0v30.916h-16.136L280.121 235.667 280.121 235.667zM296.257 273.355c.738.247 1.601.247 2.586.247 8.13 0 11.823-5.789 11.823-13.548 0-7.269-2.955-12.935-10.469-12.935-1.479 0-2.955.247-3.94.616V273.355z"/></svg>